<?xml version="1.0" encoding="utf-8" standalone="no"?>
<!DOCTYPE svg PUBLIC "-//W3C//DTD SVG 1.1//EN"
  "http://www.w3.org/Graphics/SVG/1.1/DTD/svg11.dtd">
<svg xmlns:xlink="http://www.w3.org/1999/xlink" width="864pt" height="576pt" viewBox="0 0 864 576" xmlns="http://www.w3.org/2000/svg" version="1.1">
 <metadata>
  <rdf:RDF xmlns:dc="http://purl.org/dc/elements/1.1/" xmlns:cc="http://creativecommons.org/ns#" xmlns:rdf="http://www.w3.org/1999/02/22-rdf-syntax-ns#">
   <cc:Work>
    <dc:type rdf:resource="http://purl.org/dc/dcmitype/StillImage"/>
    <dc:date>2026-01-05T03:34:41.951117</dc:date>
    <dc:format>image/svg+xml</dc:format>
    <dc:creator>
     <cc:Agent>
      <dc:title>Matplotlib v3.10.8, https://matplotlib.org/</dc:title>
     </cc:Agent>
    </dc:creator>
   </cc:Work>
  </rdf:RDF>
 </metadata>
 <defs>
  <style type="text/css">*{stroke-linejoin: round; stroke-linecap: butt}</style>
 </defs>
 <g id="figure_1">
  <g id="patch_1">
   <path d="M 0 576 
L 864 576 
L 864 0 
L 0 0 
z
" style="fill: #ffffff"/>
  </g>
  <g id="axes_1">
   <g id="patch_2">
    <path d="M 42.55 277.4225 
L 426.6 277.4225 
L 426.6 49.245 
L 42.55 49.245 
z
" style="fill: #ffffff"/>
   </g>
   <g id="patch_3">
    <path d="M 60.006818 277.4225 
L 77.463636 277.4225 
L 77.463636 271.770394 
L 60.006818 271.770394 
z
" clip-path="url(#p766570a15d)" style="fill: #1f77b4; stroke: #000000; stroke-linejoin: miter"/>
   </g>
   <g id="patch_4">
    <path d="M 77.463636 277.4225 
L 94.920455 277.4225 
L 94.920455 227.498531 
L 77.463636 227.498531 
z
" clip-path="url(#p766570a15d)" style="fill: #1f77b4; stroke: #000000; stroke-linejoin: miter"/>
   </g>
   <g id="patch_5">
    <path d="M 94.920455 277.4225 
L 112.377273 277.4225 
L 112.377273 60.110595 
L 94.920455 60.110595 
z
" clip-path="url(#p766570a15d)" style="fill: #1f77b4; stroke: #000000; stroke-linejoin: miter"/>
   </g>
   <g id="patch_6">
    <path d="M 112.377273 277.4225 
L 129.834091 277.4225 
L 129.834091 102.242859 
L 112.377273 102.242859 
z
" clip-path="url(#p766570a15d)" style="fill: #1f77b4; stroke: #000000; stroke-linejoin: miter"/>
   </g>
   <g id="patch_7">
    <path d="M 129.834091 277.4225 
L 147.290909 277.4225 
L 147.290909 137.314447 
L 129.834091 137.314447 
z
" clip-path="url(#p766570a15d)" style="fill: #1f77b4; stroke: #000000; stroke-linejoin: miter"/>
   </g>
   <g id="patch_8">
    <path d="M 147.290909 277.4225 
L 164.747727 277.4225 
L 164.747727 147.459711 
L 147.290909 147.459711 
z
" clip-path="url(#p766570a15d)" style="fill: #1f77b4; stroke: #000000; stroke-linejoin: miter"/>
   </g>
   <g id="patch_9">
    <path d="M 164.747727 277.4225 
L 182.204545 277.4225 
L 182.204545 204.319545 
L 164.747727 204.319545 
z
" clip-path="url(#p766570a15d)" style="fill: #1f77b4; stroke: #000000; stroke-linejoin: miter"/>
   </g>
   <g id="patch_10">
    <path d="M 182.204545 277.4225 
L 199.661364 277.4225 
L 199.661364 205.638965 
L 182.204545 205.638965 
z
" clip-path="url(#p766570a15d)" style="fill: #1f77b4; stroke: #000000; stroke-linejoin: miter"/>
   </g>
   <g id="patch_11">
    <path d="M 199.661364 277.4225 
L 217.118182 277.4225 
L 217.118182 234.077797 
L 199.661364 234.077797 
z
" clip-path="url(#p766570a15d)" style="fill: #1f77b4; stroke: #000000; stroke-linejoin: miter"/>
   </g>
   <g id="patch_12">
    <path d="M 217.118182 277.4225 
L 234.575 277.4225 
L 234.575 245.72078 
L 217.118182 245.72078 
z
" clip-path="url(#p766570a15d)" style="fill: #1f77b4; stroke: #000000; stroke-linejoin: miter"/>
   </g>
   <g id="patch_13">
    <path d="M 234.575 277.4225 
L 252.031818 277.4225 
L 252.031818 247.539439 
L 234.575 247.539439 
z
" clip-path="url(#p766570a15d)" style="fill: #1f77b4; stroke: #000000; stroke-linejoin: miter"/>
   </g>
   <g id="patch_14">
    <path d="M 252.031818 277.4225 
L 269.488636 277.4225 
L 269.488636 252.371366 
L 252.031818 252.371366 
z
" clip-path="url(#p766570a15d)" style="fill: #1f77b4; stroke: #000000; stroke-linejoin: miter"/>
   </g>
   <g id="patch_15">
    <path d="M 269.488636 277.4225 
L 286.945455 277.4225 
L 286.945455 264.745378 
L 269.488636 264.745378 
z
" clip-path="url(#p766570a15d)" style="fill: #1f77b4; stroke: #000000; stroke-linejoin: miter"/>
   </g>
   <g id="patch_16">
    <path d="M 286.945455 277.4225 
L 304.402273 277.4225 
L 304.402273 268.810615 
L 286.945455 268.810615 
z
" clip-path="url(#p766570a15d)" style="fill: #1f77b4; stroke: #000000; stroke-linejoin: miter"/>
   </g>
   <g id="patch_17">
    <path d="M 304.402273 277.4225 
L 321.859091 277.4225 
L 321.859091 270.861064 
L 304.402273 270.861064 
z
" clip-path="url(#p766570a15d)" style="fill: #1f77b4; stroke: #000000; stroke-linejoin: miter"/>
   </g>
   <g id="patch_18">
    <path d="M 321.859091 277.4225 
L 339.315909 277.4225 
L 339.315909 273.624712 
L 321.859091 273.624712 
z
" clip-path="url(#p766570a15d)" style="fill: #1f77b4; stroke: #000000; stroke-linejoin: miter"/>
   </g>
   <g id="patch_19">
    <path d="M 339.315909 277.4225 
L 356.772727 277.4225 
L 356.772727 276.317041 
L 339.315909 276.317041 
z
" clip-path="url(#p766570a15d)" style="fill: #1f77b4; stroke: #000000; stroke-linejoin: miter"/>
   </g>
   <g id="patch_20">
    <path d="M 356.772727 277.4225 
L 374.229545 277.4225 
L 374.229545 276.63798 
L 356.772727 276.63798 
z
" clip-path="url(#p766570a15d)" style="fill: #1f77b4; stroke: #000000; stroke-linejoin: miter"/>
   </g>
   <g id="patch_21">
    <path d="M 374.229545 277.4225 
L 391.686364 277.4225 
L 391.686364 277.2442 
L 374.229545 277.2442 
z
" clip-path="url(#p766570a15d)" style="fill: #1f77b4; stroke: #000000; stroke-linejoin: miter"/>
   </g>
   <g id="patch_22">
    <path d="M 391.686364 277.4225 
L 409.143182 277.4225 
L 409.143182 277.27986 
L 391.686364 277.27986 
z
" clip-path="url(#p766570a15d)" style="fill: #1f77b4; stroke: #000000; stroke-linejoin: miter"/>
   </g>
   <g id="matplotlib.axis_1">
    <g id="xtick_1">
     <g id="line2d_1">
      <defs>
       <path id="m2ca3edd620" d="M 0 0 
L 0 3.5 
" style="stroke: #000000; stroke-width: 0.8"/>
      </defs>
      <g>
       <use xlink:href="#m2ca3edd620" x="78.879054" y="277.4225" style="stroke: #000000; stroke-width: 0.8"/>
      </g>
     </g>
     <g id="text_1">
      <text style="font-size: 10px; font-family: 'STIX Two Text'; text-anchor: middle" x="78.879054" y="291.481875" transform="rotate(-0 78.879054 291.481875)">20</text>
     </g>
    </g>
    <g id="xtick_2">
     <g id="line2d_2">
      <g>
       <use xlink:href="#m2ca3edd620" x="126.059644" y="277.4225" style="stroke: #000000; stroke-width: 0.8"/>
      </g>
     </g>
     <g id="text_2">
      <text style="font-size: 10px; font-family: 'STIX Two Text'; text-anchor: middle" x="126.059644" y="291.481875" transform="rotate(-0 126.059644 291.481875)">30</text>
     </g>
    </g>
    <g id="xtick_3">
     <g id="line2d_3">
      <g>
       <use xlink:href="#m2ca3edd620" x="173.240233" y="277.4225" style="stroke: #000000; stroke-width: 0.8"/>
      </g>
     </g>
     <g id="text_3">
      <text style="font-size: 10px; font-family: 'STIX Two Text'; text-anchor: middle" x="173.240233" y="291.481875" transform="rotate(-0 173.240233 291.481875)">40</text>
     </g>
    </g>
    <g id="xtick_4">
     <g id="line2d_4">
      <g>
       <use xlink:href="#m2ca3edd620" x="220.420823" y="277.4225" style="stroke: #000000; stroke-width: 0.8"/>
      </g>
     </g>
     <g id="text_4">
      <text style="font-size: 10px; font-family: 'STIX Two Text'; text-anchor: middle" x="220.420823" y="291.481875" transform="rotate(-0 220.420823 291.481875)">50</text>
     </g>
    </g>
    <g id="xtick_5">
     <g id="line2d_5">
      <g>
       <use xlink:href="#m2ca3edd620" x="267.601413" y="277.4225" style="stroke: #000000; stroke-width: 0.8"/>
      </g>
     </g>
     <g id="text_5">
      <text style="font-size: 10px; font-family: 'STIX Two Text'; text-anchor: middle" x="267.601413" y="291.481875" transform="rotate(-0 267.601413 291.481875)">60</text>
     </g>
    </g>
    <g id="xtick_6">
     <g id="line2d_6">
      <g>
       <use xlink:href="#m2ca3edd620" x="314.782002" y="277.4225" style="stroke: #000000; stroke-width: 0.8"/>
      </g>
     </g>
     <g id="text_6">
      <text style="font-size: 10px; font-family: 'STIX Two Text'; text-anchor: middle" x="314.782002" y="291.481875" transform="rotate(-0 314.782002 291.481875)">70</text>
     </g>
    </g>
    <g id="xtick_7">
     <g id="line2d_7">
      <g>
       <use xlink:href="#m2ca3edd620" x="361.962592" y="277.4225" style="stroke: #000000; stroke-width: 0.8"/>
      </g>
     </g>
     <g id="text_7">
      <text style="font-size: 10px; font-family: 'STIX Two Text'; text-anchor: middle" x="361.962592" y="291.481875" transform="rotate(-0 361.962592 291.481875)">80</text>
     </g>
    </g>
    <g id="xtick_8">
     <g id="line2d_8">
      <g>
       <use xlink:href="#m2ca3edd620" x="409.143182" y="277.4225" style="stroke: #000000; stroke-width: 0.8"/>
      </g>
     </g>
     <g id="text_8">
      <text style="font-size: 10px; font-family: 'STIX Two Text'; text-anchor: middle" x="409.143182" y="291.481875" transform="rotate(-0 409.143182 291.481875)">90</text>
     </g>
    </g>
   </g>
   <g id="matplotlib.axis_2">
    <g id="ytick_1">
     <g id="line2d_9">
      <defs>
       <path id="m024571b2cf" d="M 0 0 
L -3.5 0 
" style="stroke: #000000; stroke-width: 0.8"/>
      </defs>
      <g>
       <use xlink:href="#m024571b2cf" x="42.55" y="277.4225" style="stroke: #000000; stroke-width: 0.8"/>
      </g>
     </g>
     <g id="text_9">
      <text style="font-size: 10px; font-family: 'STIX Two Text'; text-anchor: end" x="35.55" y="280.952188" transform="rotate(-0 35.55 280.952188)">0</text>
     </g>
    </g>
    <g id="ytick_2">
     <g id="line2d_10">
      <g>
       <use xlink:href="#m024571b2cf" x="42.55" y="241.762522" style="stroke: #000000; stroke-width: 0.8"/>
      </g>
     </g>
     <g id="text_10">
      <text style="font-size: 10px; font-family: 'STIX Two Text'; text-anchor: end" x="35.55" y="245.29221" transform="rotate(-0 35.55 245.29221)">2000</text>
     </g>
    </g>
    <g id="ytick_3">
     <g id="line2d_11">
      <g>
       <use xlink:href="#m024571b2cf" x="42.55" y="206.102544" style="stroke: #000000; stroke-width: 0.8"/>
      </g>
     </g>
     <g id="text_11">
      <text style="font-size: 10px; font-family: 'STIX Two Text'; text-anchor: end" x="35.55" y="209.632232" transform="rotate(-0 35.55 209.632232)">4000</text>
     </g>
    </g>
    <g id="ytick_4">
     <g id="line2d_12">
      <g>
       <use xlink:href="#m024571b2cf" x="42.55" y="170.442567" style="stroke: #000000; stroke-width: 0.8"/>
      </g>
     </g>
     <g id="text_12">
      <text style="font-size: 10px; font-family: 'STIX Two Text'; text-anchor: end" x="35.55" y="173.972254" transform="rotate(-0 35.55 173.972254)">6000</text>
     </g>
    </g>
    <g id="ytick_5">
     <g id="line2d_13">
      <g>
       <use xlink:href="#m024571b2cf" x="42.55" y="134.782589" style="stroke: #000000; stroke-width: 0.8"/>
      </g>
     </g>
     <g id="text_13">
      <text style="font-size: 10px; font-family: 'STIX Two Text'; text-anchor: end" x="35.55" y="138.312276" transform="rotate(-0 35.55 138.312276)">8000</text>
     </g>
    </g>
    <g id="ytick_6">
     <g id="line2d_14">
      <g>
       <use xlink:href="#m024571b2cf" x="42.55" y="99.122611" style="stroke: #000000; stroke-width: 0.8"/>
      </g>
     </g>
     <g id="text_14">
      <text style="font-size: 10px; font-family: 'STIX Two Text'; text-anchor: end" x="35.55" y="102.652298" transform="rotate(-0 35.55 102.652298)">10000</text>
     </g>
    </g>
    <g id="ytick_7">
     <g id="line2d_15">
      <g>
       <use xlink:href="#m024571b2cf" x="42.55" y="63.462633" style="stroke: #000000; stroke-width: 0.8"/>
      </g>
     </g>
     <g id="text_15">
      <text style="font-size: 10px; font-family: 'STIX Two Text'; text-anchor: end" x="35.55" y="66.992321" transform="rotate(-0 35.55 66.992321)">12000</text>
     </g>
    </g>
   </g>
   <g id="patch_23">
    <path d="M 42.55 277.4225 
L 42.55 49.245 
" style="fill: none; stroke: #000000; stroke-width: 0.8; stroke-linejoin: miter; stroke-linecap: square"/>
   </g>
   <g id="patch_24">
    <path d="M 426.6 277.4225 
L 426.6 49.245 
" style="fill: none; stroke: #000000; stroke-width: 0.8; stroke-linejoin: miter; stroke-linecap: square"/>
   </g>
   <g id="patch_25">
    <path d="M 42.55 277.4225 
L 426.6 277.4225 
" style="fill: none; stroke: #000000; stroke-width: 0.8; stroke-linejoin: miter; stroke-linecap: square"/>
   </g>
   <g id="patch_26">
    <path d="M 42.55 49.245 
L 426.6 49.245 
" style="fill: none; stroke: #000000; stroke-width: 0.8; stroke-linejoin: miter; stroke-linecap: square"/>
   </g>
   <g id="text_16">
    <text style="font-size: 14px; font-family: 'STIX Two Text'; text-anchor: middle" x="234.575" y="43.245" transform="rotate(-0 234.575 43.245)">Driver age</text>
   </g>
  </g>
  <g id="axes_2">
   <g id="patch_27">
    <path d="M 469.15 277.4225 
L 853.2 277.4225 
L 853.2 49.245 
L 469.15 49.245 
z
" style="fill: #ffffff"/>
   </g>
   <g id="patch_28">
    <path d="M 486.606818 277.4225 
L 504.063636 277.4225 
L 504.063636 60.110595 
L 486.606818 60.110595 
z
" clip-path="url(#p6ba9863059)" style="fill: #1f77b4; stroke: #000000; stroke-linejoin: miter"/>
   </g>
   <g id="patch_29">
    <path d="M 504.063636 277.4225 
L 521.520455 277.4225 
L 521.520455 140.307014 
L 504.063636 140.307014 
z
" clip-path="url(#p6ba9863059)" style="fill: #1f77b4; stroke: #000000; stroke-linejoin: miter"/>
   </g>
   <g id="patch_30">
    <path d="M 521.520455 277.4225 
L 538.977273 277.4225 
L 538.977273 207.202089 
L 521.520455 207.202089 
z
" clip-path="url(#p6ba9863059)" style="fill: #1f77b4; stroke: #000000; stroke-linejoin: miter"/>
   </g>
   <g id="patch_31">
    <path d="M 538.977273 277.4225 
L 556.434091 277.4225 
L 556.434091 194.070654 
L 538.977273 194.070654 
z
" clip-path="url(#p6ba9863059)" style="fill: #1f77b4; stroke: #000000; stroke-linejoin: miter"/>
   </g>
   <g id="patch_32">
    <path d="M 556.434091 277.4225 
L 573.890909 277.4225 
L 573.890909 242.008888 
L 556.434091 242.008888 
z
" clip-path="url(#p6ba9863059)" style="fill: #1f77b4; stroke: #000000; stroke-linejoin: miter"/>
   </g>
   <g id="patch_33">
    <path d="M 573.890909 277.4225 
L 591.347727 277.4225 
L 591.347727 243.343877 
L 573.890909 243.343877 
z
" clip-path="url(#p6ba9863059)" style="fill: #1f77b4; stroke: #000000; stroke-linejoin: miter"/>
   </g>
   <g id="patch_34">
    <path d="M 591.347727 277.4225 
L 608.804545 277.4225 
L 608.804545 245.127907 
L 591.347727 245.127907 
z
" clip-path="url(#p6ba9863059)" style="fill: #1f77b4; stroke: #000000; stroke-linejoin: miter"/>
   </g>
   <g id="patch_35">
    <path d="M 608.804545 277.4225 
L 626.261364 277.4225 
L 626.261364 270.298514 
L 608.804545 270.298514 
z
" clip-path="url(#p6ba9863059)" style="fill: #1f77b4; stroke: #000000; stroke-linejoin: miter"/>
   </g>
   <g id="patch_36">
    <path d="M 626.261364 277.4225 
L 643.718182 277.4225 
L 643.718182 266.948906 
L 626.261364 266.948906 
z
" clip-path="url(#p6ba9863059)" style="fill: #1f77b4; stroke: #000000; stroke-linejoin: miter"/>
   </g>
   <g id="patch_37">
    <path d="M 643.718182 277.4225 
L 661.175 277.4225 
L 661.175 271.912637 
L 643.718182 271.912637 
z
" clip-path="url(#p6ba9863059)" style="fill: #1f77b4; stroke: #000000; stroke-linejoin: miter"/>
   </g>
   <g id="patch_38">
    <path d="M 661.175 277.4225 
L 678.631818 277.4225 
L 678.631818 261.827404 
L 661.175 261.827404 
z
" clip-path="url(#p6ba9863059)" style="fill: #1f77b4; stroke: #000000; stroke-linejoin: miter"/>
   </g>
   <g id="patch_39">
    <path d="M 678.631818 277.4225 
L 696.088636 277.4225 
L 696.088636 271.742729 
L 678.631818 271.742729 
z
" clip-path="url(#p6ba9863059)" style="fill: #1f77b4; stroke: #000000; stroke-linejoin: miter"/>
   </g>
   <g id="patch_40">
    <path d="M 696.088636 277.4225 
L 713.545455 277.4225 
L 713.545455 273.563169 
L 696.088636 273.563169 
z
" clip-path="url(#p6ba9863059)" style="fill: #1f77b4; stroke: #000000; stroke-linejoin: miter"/>
   </g>
   <g id="patch_41">
    <path d="M 713.545455 277.4225 
L 731.002273 277.4225 
L 731.002273 272.082545 
L 713.545455 272.082545 
z
" clip-path="url(#p6ba9863059)" style="fill: #1f77b4; stroke: #000000; stroke-linejoin: miter"/>
   </g>
   <g id="patch_42">
    <path d="M 731.002273 277.4225 
L 748.459091 277.4225 
L 748.459091 276.172465 
L 731.002273 276.172465 
z
" clip-path="url(#p6ba9863059)" style="fill: #1f77b4; stroke: #000000; stroke-linejoin: miter"/>
   </g>
   <g id="patch_43">
    <path d="M 748.459091 277.4225 
L 765.915909 277.4225 
L 765.915909 275.966149 
L 748.459091 275.966149 
z
" clip-path="url(#p6ba9863059)" style="fill: #1f77b4; stroke: #000000; stroke-linejoin: miter"/>
   </g>
   <g id="patch_44">
    <path d="M 765.915909 277.4225 
L 783.372727 277.4225 
L 783.372727 276.208874 
L 765.915909 276.208874 
z
" clip-path="url(#p6ba9863059)" style="fill: #1f77b4; stroke: #000000; stroke-linejoin: miter"/>
   </g>
   <g id="patch_45">
    <path d="M 783.372727 277.4225 
L 800.829545 277.4225 
L 800.829545 277.143366 
L 783.372727 277.143366 
z
" clip-path="url(#p6ba9863059)" style="fill: #1f77b4; stroke: #000000; stroke-linejoin: miter"/>
   </g>
   <g id="patch_46">
    <path d="M 800.829545 277.4225 
L 818.286364 277.4225 
L 818.286364 277.22832 
L 800.829545 277.22832 
z
" clip-path="url(#p6ba9863059)" style="fill: #1f77b4; stroke: #000000; stroke-linejoin: miter"/>
   </g>
   <g id="patch_47">
    <path d="M 818.286364 277.4225 
L 835.743182 277.4225 
L 835.743182 277.276865 
L 818.286364 277.276865 
z
" clip-path="url(#p6ba9863059)" style="fill: #1f77b4; stroke: #000000; stroke-linejoin: miter"/>
   </g>
   <g id="matplotlib.axis_3">
    <g id="xtick_9">
     <g id="line2d_16">
      <g>
       <use xlink:href="#m2ca3edd620" x="486.606818" y="277.4225" style="stroke: #000000; stroke-width: 0.8"/>
      </g>
     </g>
     <g id="text_17">
      <text style="font-size: 10px; font-family: 'STIX Two Text'; text-anchor: middle" x="486.606818" y="291.481875" transform="rotate(-0 486.606818 291.481875)">0</text>
     </g>
    </g>
    <g id="xtick_10">
     <g id="line2d_17">
      <g>
       <use xlink:href="#m2ca3edd620" x="544.796212" y="277.4225" style="stroke: #000000; stroke-width: 0.8"/>
      </g>
     </g>
     <g id="text_18">
      <text style="font-size: 10px; font-family: 'STIX Two Text'; text-anchor: middle" x="544.796212" y="291.481875" transform="rotate(-0 544.796212 291.481875)">10</text>
     </g>
    </g>
    <g id="xtick_11">
     <g id="line2d_18">
      <g>
       <use xlink:href="#m2ca3edd620" x="602.985606" y="277.4225" style="stroke: #000000; stroke-width: 0.8"/>
      </g>
     </g>
     <g id="text_19">
      <text style="font-size: 10px; font-family: 'STIX Two Text'; text-anchor: middle" x="602.985606" y="291.481875" transform="rotate(-0 602.985606 291.481875)">20</text>
     </g>
    </g>
    <g id="xtick_12">
     <g id="line2d_19">
      <g>
       <use xlink:href="#m2ca3edd620" x="661.175" y="277.4225" style="stroke: #000000; stroke-width: 0.8"/>
      </g>
     </g>
     <g id="text_20">
      <text style="font-size: 10px; font-family: 'STIX Two Text'; text-anchor: middle" x="661.175" y="291.481875" transform="rotate(-0 661.175 291.481875)">30</text>
     </g>
    </g>
    <g id="xtick_13">
     <g id="line2d_20">
      <g>
       <use xlink:href="#m2ca3edd620" x="719.364394" y="277.4225" style="stroke: #000000; stroke-width: 0.8"/>
      </g>
     </g>
     <g id="text_21">
      <text style="font-size: 10px; font-family: 'STIX Two Text'; text-anchor: middle" x="719.364394" y="291.481875" transform="rotate(-0 719.364394 291.481875)">40</text>
     </g>
    </g>
    <g id="xtick_14">
     <g id="line2d_21">
      <g>
       <use xlink:href="#m2ca3edd620" x="777.553788" y="277.4225" style="stroke: #000000; stroke-width: 0.8"/>
      </g>
     </g>
     <g id="text_22">
      <text style="font-size: 10px; font-family: 'STIX Two Text'; text-anchor: middle" x="777.553788" y="291.481875" transform="rotate(-0 777.553788 291.481875)">50</text>
     </g>
    </g>
    <g id="xtick_15">
     <g id="line2d_22">
      <g>
       <use xlink:href="#m2ca3edd620" x="835.743182" y="277.4225" style="stroke: #000000; stroke-width: 0.8"/>
      </g>
     </g>
     <g id="text_23">
      <text style="font-size: 10px; font-family: 'STIX Two Text'; text-anchor: middle" x="835.743182" y="291.481875" transform="rotate(-0 835.743182 291.481875)">60</text>
     </g>
    </g>
   </g>
   <g id="matplotlib.axis_4">
    <g id="ytick_8">
     <g id="line2d_23">
      <g>
       <use xlink:href="#m024571b2cf" x="469.15" y="277.4225" style="stroke: #000000; stroke-width: 0.8"/>
      </g>
     </g>
     <g id="text_24">
      <text style="font-size: 10px; font-family: 'STIX Two Text'; text-anchor: end" x="462.15" y="280.952188" transform="rotate(-0 462.15 280.952188)">0</text>
     </g>
    </g>
    <g id="ytick_9">
     <g id="line2d_24">
      <g>
       <use xlink:href="#m024571b2cf" x="469.15" y="247.081845" style="stroke: #000000; stroke-width: 0.8"/>
      </g>
     </g>
     <g id="text_25">
      <text style="font-size: 10px; font-family: 'STIX Two Text'; text-anchor: end" x="462.15" y="250.611533" transform="rotate(-0 462.15 250.611533)">2500</text>
     </g>
    </g>
    <g id="ytick_10">
     <g id="line2d_25">
      <g>
       <use xlink:href="#m024571b2cf" x="469.15" y="216.741191" style="stroke: #000000; stroke-width: 0.8"/>
      </g>
     </g>
     <g id="text_26">
      <text style="font-size: 10px; font-family: 'STIX Two Text'; text-anchor: end" x="462.15" y="220.270878" transform="rotate(-0 462.15 220.270878)">5000</text>
     </g>
    </g>
    <g id="ytick_11">
     <g id="line2d_26">
      <g>
       <use xlink:href="#m024571b2cf" x="469.15" y="186.400536" style="stroke: #000000; stroke-width: 0.8"/>
      </g>
     </g>
     <g id="text_27">
      <text style="font-size: 10px; font-family: 'STIX Two Text'; text-anchor: end" x="462.15" y="189.930224" transform="rotate(-0 462.15 189.930224)">7500</text>
     </g>
    </g>
    <g id="ytick_12">
     <g id="line2d_27">
      <g>
       <use xlink:href="#m024571b2cf" x="469.15" y="156.059881" style="stroke: #000000; stroke-width: 0.8"/>
      </g>
     </g>
     <g id="text_28">
      <text style="font-size: 10px; font-family: 'STIX Two Text'; text-anchor: end" x="462.15" y="159.589569" transform="rotate(-0 462.15 159.589569)">10000</text>
     </g>
    </g>
    <g id="ytick_13">
     <g id="line2d_28">
      <g>
       <use xlink:href="#m024571b2cf" x="469.15" y="125.719227" style="stroke: #000000; stroke-width: 0.8"/>
      </g>
     </g>
     <g id="text_29">
      <text style="font-size: 10px; font-family: 'STIX Two Text'; text-anchor: end" x="462.15" y="129.248914" transform="rotate(-0 462.15 129.248914)">12500</text>
     </g>
    </g>
    <g id="ytick_14">
     <g id="line2d_29">
      <g>
       <use xlink:href="#m024571b2cf" x="469.15" y="95.378572" style="stroke: #000000; stroke-width: 0.8"/>
      </g>
     </g>
     <g id="text_30">
      <text style="font-size: 10px; font-family: 'STIX Two Text'; text-anchor: end" x="462.15" y="98.90826" transform="rotate(-0 462.15 98.90826)">15000</text>
     </g>
    </g>
    <g id="ytick_15">
     <g id="line2d_30">
      <g>
       <use xlink:href="#m024571b2cf" x="469.15" y="65.037918" style="stroke: #000000; stroke-width: 0.8"/>
      </g>
     </g>
     <g id="text_31">
      <text style="font-size: 10px; font-family: 'STIX Two Text'; text-anchor: end" x="462.15" y="68.567605" transform="rotate(-0 462.15 68.567605)">17500</text>
     </g>
    </g>
   </g>
   <g id="patch_48">
    <path d="M 469.15 277.4225 
L 469.15 49.245 
" style="fill: none; stroke: #000000; stroke-width: 0.8; stroke-linejoin: miter; stroke-linecap: square"/>
   </g>
   <g id="patch_49">
    <path d="M 853.2 277.4225 
L 853.2 49.245 
" style="fill: none; stroke: #000000; stroke-width: 0.8; stroke-linejoin: miter; stroke-linecap: square"/>
   </g>
   <g id="patch_50">
    <path d="M 469.15 277.4225 
L 853.2 277.4225 
" style="fill: none; stroke: #000000; stroke-width: 0.8; stroke-linejoin: miter; stroke-linecap: square"/>
   </g>
   <g id="patch_51">
    <path d="M 469.15 49.245 
L 853.2 49.245 
" style="fill: none; stroke: #000000; stroke-width: 0.8; stroke-linejoin: miter; stroke-linecap: square"/>
   </g>
   <g id="text_32">
    <text style="font-size: 14px; font-family: 'STIX Two Text'; text-anchor: middle" x="661.175" y="43.245" transform="rotate(-0 661.175 43.245)">Driver experiance(years)</text>
   </g>
  </g>
  <g id="axes_3">
   <g id="patch_52">
    <path d="M 42.55 548.84 
L 426.6 548.84 
L 426.6 320.6625 
L 42.55 320.6625 
z
" style="fill: #ffffff"/>
   </g>
   <g id="patch_53">
    <path d="M 60.006818 548.84 
L 77.463636 548.84 
L 77.463636 519.552681 
L 60.006818 519.552681 
z
" clip-path="url(#p468bf30e1b)" style="fill: #1f77b4; stroke: #000000; stroke-linejoin: miter"/>
   </g>
   <g id="patch_54">
    <path d="M 77.463636 548.84 
L 94.920455 548.84 
L 94.920455 331.528095 
L 77.463636 331.528095 
z
" clip-path="url(#p468bf30e1b)" style="fill: #1f77b4; stroke: #000000; stroke-linejoin: miter"/>
   </g>
   <g id="patch_55">
    <path d="M 94.920455 548.84 
L 112.377273 548.84 
L 112.377273 372.813767 
L 94.920455 372.813767 
z
" clip-path="url(#p468bf30e1b)" style="fill: #1f77b4; stroke: #000000; stroke-linejoin: miter"/>
   </g>
   <g id="patch_56">
    <path d="M 112.377273 548.84 
L 129.834091 548.84 
L 129.834091 416.329054 
L 112.377273 416.329054 
z
" clip-path="url(#p468bf30e1b)" style="fill: #1f77b4; stroke: #000000; stroke-linejoin: miter"/>
   </g>
   <g id="patch_57">
    <path d="M 129.834091 548.84 
L 147.290909 548.84 
L 147.290909 540.280545 
L 129.834091 540.280545 
z
" clip-path="url(#p468bf30e1b)" style="fill: #1f77b4; stroke: #000000; stroke-linejoin: miter"/>
   </g>
   <g id="patch_58">
    <path d="M 147.290909 548.84 
L 164.747727 548.84 
L 164.747727 548.84 
L 147.290909 548.84 
z
" clip-path="url(#p468bf30e1b)" style="fill: #1f77b4; stroke: #000000; stroke-linejoin: miter"/>
   </g>
   <g id="patch_59">
    <path d="M 164.747727 548.84 
L 182.204545 548.84 
L 182.204545 548.84 
L 164.747727 548.84 
z
" clip-path="url(#p468bf30e1b)" style="fill: #1f77b4; stroke: #000000; stroke-linejoin: miter"/>
   </g>
   <g id="patch_60">
    <path d="M 182.204545 548.84 
L 199.661364 548.84 
L 199.661364 548.830552 
L 182.204545 548.830552 
z
" clip-path="url(#p468bf30e1b)" style="fill: #1f77b4; stroke: #000000; stroke-linejoin: miter"/>
   </g>
   <g id="patch_61">
    <path d="M 199.661364 548.84 
L 217.118182 548.84 
L 217.118182 548.84 
L 199.661364 548.84 
z
" clip-path="url(#p468bf30e1b)" style="fill: #1f77b4; stroke: #000000; stroke-linejoin: miter"/>
   </g>
   <g id="patch_62">
    <path d="M 217.118182 548.84 
L 234.575 548.84 
L 234.575 548.84 
L 217.118182 548.84 
z
" clip-path="url(#p468bf30e1b)" style="fill: #1f77b4; stroke: #000000; stroke-linejoin: miter"/>
   </g>
   <g id="patch_63">
    <path d="M 234.575 548.84 
L 252.031818 548.84 
L 252.031818 548.84 
L 234.575 548.84 
z
" clip-path="url(#p468bf30e1b)" style="fill: #1f77b4; stroke: #000000; stroke-linejoin: miter"/>
   </g>
   <g id="patch_64">
    <path d="M 252.031818 548.84 
L 269.488636 548.84 
L 269.488636 548.84 
L 252.031818 548.84 
z
" clip-path="url(#p468bf30e1b)" style="fill: #1f77b4; stroke: #000000; stroke-linejoin: miter"/>
   </g>
   <g id="patch_65">
    <path d="M 269.488636 548.84 
L 286.945455 548.84 
L 286.945455 548.84 
L 269.488636 548.84 
z
" clip-path="url(#p468bf30e1b)" style="fill: #1f77b4; stroke: #000000; stroke-linejoin: miter"/>
   </g>
   <g id="patch_66">
    <path d="M 286.945455 548.84 
L 304.402273 548.84 
L 304.402273 548.84 
L 286.945455 548.84 
z
" clip-path="url(#p468bf30e1b)" style="fill: #1f77b4; stroke: #000000; stroke-linejoin: miter"/>
   </g>
   <g id="patch_67">
    <path d="M 304.402273 548.84 
L 321.859091 548.84 
L 321.859091 548.84 
L 304.402273 548.84 
z
" clip-path="url(#p468bf30e1b)" style="fill: #1f77b4; stroke: #000000; stroke-linejoin: miter"/>
   </g>
   <g id="patch_68">
    <path d="M 321.859091 548.84 
L 339.315909 548.84 
L 339.315909 548.84 
L 321.859091 548.84 
z
" clip-path="url(#p468bf30e1b)" style="fill: #1f77b4; stroke: #000000; stroke-linejoin: miter"/>
   </g>
   <g id="patch_69">
    <path d="M 339.315909 548.84 
L 356.772727 548.84 
L 356.772727 548.84 
L 339.315909 548.84 
z
" clip-path="url(#p468bf30e1b)" style="fill: #1f77b4; stroke: #000000; stroke-linejoin: miter"/>
   </g>
   <g id="patch_70">
    <path d="M 356.772727 548.84 
L 374.229545 548.84 
L 374.229545 548.84 
L 356.772727 548.84 
z
" clip-path="url(#p468bf30e1b)" style="fill: #1f77b4; stroke: #000000; stroke-linejoin: miter"/>
   </g>
   <g id="patch_71">
    <path d="M 374.229545 548.84 
L 391.686364 548.84 
L 391.686364 548.84 
L 374.229545 548.84 
z
" clip-path="url(#p468bf30e1b)" style="fill: #1f77b4; stroke: #000000; stroke-linejoin: miter"/>
   </g>
   <g id="patch_72">
    <path d="M 391.686364 548.84 
L 409.143182 548.84 
L 409.143182 548.830552 
L 391.686364 548.830552 
z
" clip-path="url(#p468bf30e1b)" style="fill: #1f77b4; stroke: #000000; stroke-linejoin: miter"/>
   </g>
   <g id="matplotlib.axis_5">
    <g id="xtick_16">
     <g id="line2d_31">
      <g>
       <use xlink:href="#m2ca3edd620" x="60.006818" y="548.84" style="stroke: #000000; stroke-width: 0.8"/>
      </g>
     </g>
     <g id="text_33">
      <text style="font-size: 10px; font-family: 'STIX Two Text'; text-anchor: middle" x="60.006818" y="562.899375" transform="rotate(-0 60.006818 562.899375)">0</text>
     </g>
    </g>
    <g id="xtick_17">
     <g id="line2d_32">
      <g>
       <use xlink:href="#m2ca3edd620" x="121.800865" y="548.84" style="stroke: #000000; stroke-width: 0.8"/>
      </g>
     </g>
     <g id="text_34">
      <text style="font-size: 10px; font-family: 'STIX Two Text'; text-anchor: middle" x="121.800865" y="562.899375" transform="rotate(-0 121.800865 562.899375)">20</text>
     </g>
    </g>
    <g id="xtick_18">
     <g id="line2d_33">
      <g>
       <use xlink:href="#m2ca3edd620" x="183.594912" y="548.84" style="stroke: #000000; stroke-width: 0.8"/>
      </g>
     </g>
     <g id="text_35">
      <text style="font-size: 10px; font-family: 'STIX Two Text'; text-anchor: middle" x="183.594912" y="562.899375" transform="rotate(-0 183.594912 562.899375)">40</text>
     </g>
    </g>
    <g id="xtick_19">
     <g id="line2d_34">
      <g>
       <use xlink:href="#m2ca3edd620" x="245.388958" y="548.84" style="stroke: #000000; stroke-width: 0.8"/>
      </g>
     </g>
     <g id="text_36">
      <text style="font-size: 10px; font-family: 'STIX Two Text'; text-anchor: middle" x="245.388958" y="562.899375" transform="rotate(-0 245.388958 562.899375)">60</text>
     </g>
    </g>
    <g id="xtick_20">
     <g id="line2d_35">
      <g>
       <use xlink:href="#m2ca3edd620" x="307.183005" y="548.84" style="stroke: #000000; stroke-width: 0.8"/>
      </g>
     </g>
     <g id="text_37">
      <text style="font-size: 10px; font-family: 'STIX Two Text'; text-anchor: middle" x="307.183005" y="562.899375" transform="rotate(-0 307.183005 562.899375)">80</text>
     </g>
    </g>
    <g id="xtick_21">
     <g id="line2d_36">
      <g>
       <use xlink:href="#m2ca3edd620" x="368.977051" y="548.84" style="stroke: #000000; stroke-width: 0.8"/>
      </g>
     </g>
     <g id="text_38">
      <text style="font-size: 10px; font-family: 'STIX Two Text'; text-anchor: middle" x="368.977051" y="562.899375" transform="rotate(-0 368.977051 562.899375)">100</text>
     </g>
    </g>
   </g>
   <g id="matplotlib.axis_6">
    <g id="ytick_16">
     <g id="line2d_37">
      <g>
       <use xlink:href="#m024571b2cf" x="42.55" y="548.84" style="stroke: #000000; stroke-width: 0.8"/>
      </g>
     </g>
     <g id="text_39">
      <text style="font-size: 10px; font-family: 'STIX Two Text'; text-anchor: end" x="35.55" y="552.369687" transform="rotate(-0 35.55 552.369687)">0</text>
     </g>
    </g>
    <g id="ytick_17">
     <g id="line2d_38">
      <g>
       <use xlink:href="#m024571b2cf" x="42.55" y="501.602389" style="stroke: #000000; stroke-width: 0.8"/>
      </g>
     </g>
     <g id="text_40">
      <text style="font-size: 10px; font-family: 'STIX Two Text'; text-anchor: end" x="35.55" y="505.132077" transform="rotate(-0 35.55 505.132077)">5000</text>
     </g>
    </g>
    <g id="ytick_18">
     <g id="line2d_39">
      <g>
       <use xlink:href="#m024571b2cf" x="42.55" y="454.364778" style="stroke: #000000; stroke-width: 0.8"/>
      </g>
     </g>
     <g id="text_41">
      <text style="font-size: 10px; font-family: 'STIX Two Text'; text-anchor: end" x="35.55" y="457.894466" transform="rotate(-0 35.55 457.894466)">10000</text>
     </g>
    </g>
    <g id="ytick_19">
     <g id="line2d_40">
      <g>
       <use xlink:href="#m024571b2cf" x="42.55" y="407.127168" style="stroke: #000000; stroke-width: 0.8"/>
      </g>
     </g>
     <g id="text_42">
      <text style="font-size: 10px; font-family: 'STIX Two Text'; text-anchor: end" x="35.55" y="410.656855" transform="rotate(-0 35.55 410.656855)">15000</text>
     </g>
    </g>
    <g id="ytick_20">
     <g id="line2d_41">
      <g>
       <use xlink:href="#m024571b2cf" x="42.55" y="359.889557" style="stroke: #000000; stroke-width: 0.8"/>
      </g>
     </g>
     <g id="text_43">
      <text style="font-size: 10px; font-family: 'STIX Two Text'; text-anchor: end" x="35.55" y="363.419244" transform="rotate(-0 35.55 363.419244)">20000</text>
     </g>
    </g>
   </g>
   <g id="patch_73">
    <path d="M 42.55 548.84 
L 42.55 320.6625 
" style="fill: none; stroke: #000000; stroke-width: 0.8; stroke-linejoin: miter; stroke-linecap: square"/>
   </g>
   <g id="patch_74">
    <path d="M 426.6 548.84 
L 426.6 320.6625 
" style="fill: none; stroke: #000000; stroke-width: 0.8; stroke-linejoin: miter; stroke-linecap: square"/>
   </g>
   <g id="patch_75">
    <path d="M 42.55 548.84 
L 426.6 548.84 
" style="fill: none; stroke: #000000; stroke-width: 0.8; stroke-linejoin: miter; stroke-linecap: square"/>
   </g>
   <g id="patch_76">
    <path d="M 42.55 320.6625 
L 426.6 320.6625 
" style="fill: none; stroke: #000000; stroke-width: 0.8; stroke-linejoin: miter; stroke-linecap: square"/>
   </g>
   <g id="text_44">
    <text style="font-size: 14px; font-family: 'STIX Two Text'; text-anchor: middle" x="234.575" y="314.6625" transform="rotate(-0 234.575 314.6625)">Hour_Encoded</text>
   </g>
  </g>
  <g id="axes_4">
   <g id="patch_77">
    <path d="M 469.15 548.84 
L 853.2 548.84 
L 853.2 320.6625 
L 469.15 320.6625 
z
" style="fill: #ffffff"/>
   </g>
   <g id="patch_78">
    <path d="M 486.606818 548.84 
L 504.063636 548.84 
L 504.063636 331.528095 
L 486.606818 331.528095 
z
" clip-path="url(#p41aa3a7f59)" style="fill: #1f77b4; stroke: #000000; stroke-linejoin: miter"/>
   </g>
   <g id="patch_79">
    <path d="M 504.063636 548.84 
L 521.520455 548.84 
L 521.520455 440.971231 
L 504.063636 440.971231 
z
" clip-path="url(#p41aa3a7f59)" style="fill: #1f77b4; stroke: #000000; stroke-linejoin: miter"/>
   </g>
   <g id="patch_80">
    <path d="M 521.520455 548.84 
L 538.977273 548.84 
L 538.977273 375.511985 
L 521.520455 375.511985 
z
" clip-path="url(#p41aa3a7f59)" style="fill: #1f77b4; stroke: #000000; stroke-linejoin: miter"/>
   </g>
   <g id="patch_81">
    <path d="M 538.977273 548.84 
L 556.434091 548.84 
L 556.434091 509.591512 
L 538.977273 509.591512 
z
" clip-path="url(#p41aa3a7f59)" style="fill: #1f77b4; stroke: #000000; stroke-linejoin: miter"/>
   </g>
   <g id="patch_82">
    <path d="M 556.434091 548.84 
L 573.890909 548.84 
L 573.890909 522.506245 
L 556.434091 522.506245 
z
" clip-path="url(#p41aa3a7f59)" style="fill: #1f77b4; stroke: #000000; stroke-linejoin: miter"/>
   </g>
   <g id="patch_83">
    <path d="M 573.890909 548.84 
L 591.347727 548.84 
L 591.347727 540.451574 
L 573.890909 540.451574 
z
" clip-path="url(#p41aa3a7f59)" style="fill: #1f77b4; stroke: #000000; stroke-linejoin: miter"/>
   </g>
   <g id="patch_84">
    <path d="M 591.347727 548.84 
L 608.804545 548.84 
L 608.804545 543.452711 
L 591.347727 543.452711 
z
" clip-path="url(#p41aa3a7f59)" style="fill: #1f77b4; stroke: #000000; stroke-linejoin: miter"/>
   </g>
   <g id="patch_85">
    <path d="M 608.804545 548.84 
L 626.261364 548.84 
L 626.261364 548.274212 
L 608.804545 548.274212 
z
" clip-path="url(#p41aa3a7f59)" style="fill: #1f77b4; stroke: #000000; stroke-linejoin: miter"/>
   </g>
   <g id="patch_86">
    <path d="M 626.261364 548.84 
L 643.718182 548.84 
L 643.718182 548.028217 
L 626.261364 548.028217 
z
" clip-path="url(#p41aa3a7f59)" style="fill: #1f77b4; stroke: #000000; stroke-linejoin: miter"/>
   </g>
   <g id="patch_87">
    <path d="M 643.718182 548.84 
L 661.175 548.84 
L 661.175 548.692403 
L 643.718182 548.692403 
z
" clip-path="url(#p41aa3a7f59)" style="fill: #1f77b4; stroke: #000000; stroke-linejoin: miter"/>
   </g>
   <g id="patch_88">
    <path d="M 661.175 548.84 
L 678.631818 548.84 
L 678.631818 548.667804 
L 661.175 548.667804 
z
" clip-path="url(#p41aa3a7f59)" style="fill: #1f77b4; stroke: #000000; stroke-linejoin: miter"/>
   </g>
   <g id="patch_89">
    <path d="M 678.631818 548.84 
L 696.088636 548.84 
L 696.088636 548.803101 
L 678.631818 548.803101 
z
" clip-path="url(#p41aa3a7f59)" style="fill: #1f77b4; stroke: #000000; stroke-linejoin: miter"/>
   </g>
   <g id="patch_90">
    <path d="M 696.088636 548.84 
L 713.545455 548.84 
L 713.545455 548.803101 
L 696.088636 548.803101 
z
" clip-path="url(#p41aa3a7f59)" style="fill: #1f77b4; stroke: #000000; stroke-linejoin: miter"/>
   </g>
   <g id="patch_91">
    <path d="M 713.545455 548.84 
L 731.002273 548.84 
L 731.002273 548.84 
L 713.545455 548.84 
z
" clip-path="url(#p41aa3a7f59)" style="fill: #1f77b4; stroke: #000000; stroke-linejoin: miter"/>
   </g>
   <g id="patch_92">
    <path d="M 731.002273 548.84 
L 748.459091 548.84 
L 748.459091 548.766202 
L 731.002273 548.766202 
z
" clip-path="url(#p41aa3a7f59)" style="fill: #1f77b4; stroke: #000000; stroke-linejoin: miter"/>
   </g>
   <g id="patch_93">
    <path d="M 748.459091 548.84 
L 765.915909 548.84 
L 765.915909 548.8277 
L 748.459091 548.8277 
z
" clip-path="url(#p41aa3a7f59)" style="fill: #1f77b4; stroke: #000000; stroke-linejoin: miter"/>
   </g>
   <g id="patch_94">
    <path d="M 765.915909 548.84 
L 783.372727 548.84 
L 783.372727 548.84 
L 765.915909 548.84 
z
" clip-path="url(#p41aa3a7f59)" style="fill: #1f77b4; stroke: #000000; stroke-linejoin: miter"/>
   </g>
   <g id="patch_95">
    <path d="M 783.372727 548.84 
L 800.829545 548.84 
L 800.829545 548.84 
L 783.372727 548.84 
z
" clip-path="url(#p41aa3a7f59)" style="fill: #1f77b4; stroke: #000000; stroke-linejoin: miter"/>
   </g>
   <g id="patch_96">
    <path d="M 800.829545 548.84 
L 818.286364 548.84 
L 818.286364 548.84 
L 800.829545 548.84 
z
" clip-path="url(#p41aa3a7f59)" style="fill: #1f77b4; stroke: #000000; stroke-linejoin: miter"/>
   </g>
   <g id="patch_97">
    <path d="M 818.286364 548.84 
L 835.743182 548.84 
L 835.743182 548.8277 
L 818.286364 548.8277 
z
" clip-path="url(#p41aa3a7f59)" style="fill: #1f77b4; stroke: #000000; stroke-linejoin: miter"/>
   </g>
   <g id="matplotlib.axis_7">
    <g id="xtick_22">
     <g id="line2d_42">
      <g>
       <use xlink:href="#m2ca3edd620" x="486.606818" y="548.84" style="stroke: #000000; stroke-width: 0.8"/>
      </g>
     </g>
     <g id="text_45">
      <text style="font-size: 10px; font-family: 'STIX Two Text'; text-anchor: middle" x="486.606818" y="562.899375" transform="rotate(-0 486.606818 562.899375)">0</text>
     </g>
    </g>
    <g id="xtick_23">
     <g id="line2d_43">
      <g>
       <use xlink:href="#m2ca3edd620" x="556.434091" y="548.84" style="stroke: #000000; stroke-width: 0.8"/>
      </g>
     </g>
     <g id="text_46">
      <text style="font-size: 10px; font-family: 'STIX Two Text'; text-anchor: middle" x="556.434091" y="562.899375" transform="rotate(-0 556.434091 562.899375)">20</text>
     </g>
    </g>
    <g id="xtick_24">
     <g id="line2d_44">
      <g>
       <use xlink:href="#m2ca3edd620" x="626.261364" y="548.84" style="stroke: #000000; stroke-width: 0.8"/>
      </g>
     </g>
     <g id="text_47">
      <text style="font-size: 10px; font-family: 'STIX Two Text'; text-anchor: middle" x="626.261364" y="562.899375" transform="rotate(-0 626.261364 562.899375)">40</text>
     </g>
    </g>
    <g id="xtick_25">
     <g id="line2d_45">
      <g>
       <use xlink:href="#m2ca3edd620" x="696.088636" y="548.84" style="stroke: #000000; stroke-width: 0.8"/>
      </g>
     </g>
     <g id="text_48">
      <text style="font-size: 10px; font-family: 'STIX Two Text'; text-anchor: middle" x="696.088636" y="562.899375" transform="rotate(-0 696.088636 562.899375)">60</text>
     </g>
    </g>
    <g id="xtick_26">
     <g id="line2d_46">
      <g>
       <use xlink:href="#m2ca3edd620" x="765.915909" y="548.84" style="stroke: #000000; stroke-width: 0.8"/>
      </g>
     </g>
     <g id="text_49">
      <text style="font-size: 10px; font-family: 'STIX Two Text'; text-anchor: middle" x="765.915909" y="562.899375" transform="rotate(-0 765.915909 562.899375)">80</text>
     </g>
    </g>
    <g id="xtick_27">
     <g id="line2d_47">
      <g>
       <use xlink:href="#m2ca3edd620" x="835.743182" y="548.84" style="stroke: #000000; stroke-width: 0.8"/>
      </g>
     </g>
     <g id="text_50">
      <text style="font-size: 10px; font-family: 'STIX Two Text'; text-anchor: middle" x="835.743182" y="562.899375" transform="rotate(-0 835.743182 562.899375)">100</text>
     </g>
    </g>
   </g>
   <g id="matplotlib.axis_8">
    <g id="ytick_21">
     <g id="line2d_48">
      <g>
       <use xlink:href="#m024571b2cf" x="469.15" y="548.84" style="stroke: #000000; stroke-width: 0.8"/>
      </g>
     </g>
     <g id="text_51">
      <text style="font-size: 10px; font-family: 'STIX Two Text'; text-anchor: end" x="462.15" y="552.369687" transform="rotate(-0 462.15 552.369687)">0</text>
     </g>
    </g>
    <g id="ytick_22">
     <g id="line2d_49">
      <g>
       <use xlink:href="#m024571b2cf" x="469.15" y="518.090636" style="stroke: #000000; stroke-width: 0.8"/>
      </g>
     </g>
     <g id="text_52">
      <text style="font-size: 10px; font-family: 'STIX Two Text'; text-anchor: end" x="462.15" y="521.620324" transform="rotate(-0 462.15 521.620324)">2500</text>
     </g>
    </g>
    <g id="ytick_23">
     <g id="line2d_50">
      <g>
       <use xlink:href="#m024571b2cf" x="469.15" y="487.341272" style="stroke: #000000; stroke-width: 0.8"/>
      </g>
     </g>
     <g id="text_53">
      <text style="font-size: 10px; font-family: 'STIX Two Text'; text-anchor: end" x="462.15" y="490.87096" transform="rotate(-0 462.15 490.87096)">5000</text>
     </g>
    </g>
    <g id="ytick_24">
     <g id="line2d_51">
      <g>
       <use xlink:href="#m024571b2cf" x="469.15" y="456.591908" style="stroke: #000000; stroke-width: 0.8"/>
      </g>
     </g>
     <g id="text_54">
      <text style="font-size: 10px; font-family: 'STIX Two Text'; text-anchor: end" x="462.15" y="460.121596" transform="rotate(-0 462.15 460.121596)">7500</text>
     </g>
    </g>
    <g id="ytick_25">
     <g id="line2d_52">
      <g>
       <use xlink:href="#m024571b2cf" x="469.15" y="425.842544" style="stroke: #000000; stroke-width: 0.8"/>
      </g>
     </g>
     <g id="text_55">
      <text style="font-size: 10px; font-family: 'STIX Two Text'; text-anchor: end" x="462.15" y="429.372232" transform="rotate(-0 462.15 429.372232)">10000</text>
     </g>
    </g>
    <g id="ytick_26">
     <g id="line2d_53">
      <g>
       <use xlink:href="#m024571b2cf" x="469.15" y="395.09318" style="stroke: #000000; stroke-width: 0.8"/>
      </g>
     </g>
     <g id="text_56">
      <text style="font-size: 10px; font-family: 'STIX Two Text'; text-anchor: end" x="462.15" y="398.622868" transform="rotate(-0 462.15 398.622868)">12500</text>
     </g>
    </g>
    <g id="ytick_27">
     <g id="line2d_54">
      <g>
       <use xlink:href="#m024571b2cf" x="469.15" y="364.343816" style="stroke: #000000; stroke-width: 0.8"/>
      </g>
     </g>
     <g id="text_57">
      <text style="font-size: 10px; font-family: 'STIX Two Text'; text-anchor: end" x="462.15" y="367.873504" transform="rotate(-0 462.15 367.873504)">15000</text>
     </g>
    </g>
    <g id="ytick_28">
     <g id="line2d_55">
      <g>
       <use xlink:href="#m024571b2cf" x="469.15" y="333.594452" style="stroke: #000000; stroke-width: 0.8"/>
      </g>
     </g>
     <g id="text_58">
      <text style="font-size: 10px; font-family: 'STIX Two Text'; text-anchor: end" x="462.15" y="337.12414" transform="rotate(-0 462.15 337.12414)">17500</text>
     </g>
    </g>
   </g>
   <g id="patch_98">
    <path d="M 469.15 548.84 
L 469.15 320.6625 
" style="fill: none; stroke: #000000; stroke-width: 0.8; stroke-linejoin: miter; stroke-linecap: square"/>
   </g>
   <g id="patch_99">
    <path d="M 853.2 548.84 
L 853.2 320.6625 
" style="fill: none; stroke: #000000; stroke-width: 0.8; stroke-linejoin: miter; stroke-linecap: square"/>
   </g>
   <g id="patch_100">
    <path d="M 469.15 548.84 
L 853.2 548.84 
" style="fill: none; stroke: #000000; stroke-width: 0.8; stroke-linejoin: miter; stroke-linecap: square"/>
   </g>
   <g id="patch_101">
    <path d="M 469.15 320.6625 
L 853.2 320.6625 
" style="fill: none; stroke: #000000; stroke-width: 0.8; stroke-linejoin: miter; stroke-linecap: square"/>
   </g>
   <g id="text_59">
    <text style="font-size: 14px; font-family: 'STIX Two Text'; text-anchor: middle" x="661.175" y="314.6625" transform="rotate(-0 661.175 314.6625)">Veh Year of Service</text>
   </g>
  </g>
  <g id="text_60">
   <text style="font-size: 12px; font-family: 'STIX Two Text'; text-anchor: middle" x="432" y="19.99125" transform="rotate(-0 432 19.99125)">Key Numerical Feature Distributions</text>
  </g>
 </g>
 <defs>
  <clipPath id="p766570a15d">
   <rect x="42.55" y="49.245" width="384.05" height="228.1775"/>
  </clipPath>
  <clipPath id="p6ba9863059">
   <rect x="469.15" y="49.245" width="384.05" height="228.1775"/>
  </clipPath>
  <clipPath id="p468bf30e1b">
   <rect x="42.55" y="320.6625" width="384.05" height="228.1775"/>
  </clipPath>
  <clipPath id="p41aa3a7f59">
   <rect x="469.15" y="320.6625" width="384.05" height="228.1775"/>
  </clipPath>
 </defs>
</svg>
