<?xml version="1.0" encoding="utf-8" standalone="no"?>
<!DOCTYPE svg PUBLIC "-//W3C//DTD SVG 1.1//EN"
  "http://www.w3.org/Graphics/SVG/1.1/DTD/svg11.dtd">
<svg xmlns:xlink="http://www.w3.org/1999/xlink" width="576pt" height="360pt" viewBox="0 0 576 360" xmlns="http://www.w3.org/2000/svg" version="1.1">
 <metadata>
  <rdf:RDF xmlns:dc="http://purl.org/dc/elements/1.1/" xmlns:cc="http://creativecommons.org/ns#" xmlns:rdf="http://www.w3.org/1999/02/22-rdf-syntax-ns#">
   <cc:Work>
    <dc:type rdf:resource="http://purl.org/dc/dcmitype/StillImage"/>
    <dc:date>2026-01-03T06:21:53.057106</dc:date>
    <dc:format>image/svg+xml</dc:format>
    <dc:creator>
     <cc:Agent>
      <dc:title>Matplotlib v3.10.8, https://matplotlib.org/</dc:title>
     </cc:Agent>
    </dc:creator>
   </cc:Work>
  </rdf:RDF>
 </metadata>
 <defs>
  <style type="text/css">*{stroke-linejoin: round; stroke-linecap: butt}</style>
 </defs>
 <g id="figure_1">
  <g id="patch_1">
   <path d="M 0 360 
L 576 360 
L 576 0 
L 0 0 
z
" style="fill: #ffffff"/>
  </g>
  <g id="axes_1">
   <g id="patch_2">
    <path d="M 72 320.4 
L 518.4 320.4 
L 518.4 43.2 
L 72 43.2 
z
" style="fill: #ffffff"/>
   </g>
   <g id="patch_3">
    <path d="M 83.16 320.4 
L 172.44 320.4 
L 172.44 56.4 
L 83.16 56.4 
z
" clip-path="url(#pab2c304c57)" style="fill: #4a4c7e"/>
   </g>
   <g id="patch_4">
    <path d="M 194.76 320.4 
L 284.04 320.4 
L 284.04 210.832008 
L 194.76 210.832008 
z
" clip-path="url(#pab2c304c57)" style="fill: #367182"/>
   </g>
   <g id="patch_5">
    <path d="M 306.36 320.4 
L 395.64 320.4 
L 395.64 289.510819 
L 306.36 289.510819 
z
" clip-path="url(#pab2c304c57)" style="fill: #33977c"/>
   </g>
   <g id="patch_6">
    <path d="M 417.96 320.4 
L 507.24 320.4 
L 507.24 308.037378 
L 417.96 308.037378 
z
" clip-path="url(#pab2c304c57)" style="fill: #80c161"/>
   </g>
   <g id="patch_7">
    <path d="M 127.8 320.4 
L 127.8 320.4 
L 127.8 320.4 
L 127.8 320.4 
z
" clip-path="url(#pab2c304c57)" style="fill: #4a4c7e"/>
   </g>
   <g id="patch_8">
    <path d="M 127.8 320.4 
L 127.8 320.4 
L 127.8 320.4 
L 127.8 320.4 
z
" clip-path="url(#pab2c304c57)" style="fill: #367182"/>
   </g>
   <g id="patch_9">
    <path d="M 127.8 320.4 
L 127.8 320.4 
L 127.8 320.4 
L 127.8 320.4 
z
" clip-path="url(#pab2c304c57)" style="fill: #33977c"/>
   </g>
   <g id="patch_10">
    <path d="M 127.8 320.4 
L 127.8 320.4 
L 127.8 320.4 
L 127.8 320.4 
z
" clip-path="url(#pab2c304c57)" style="fill: #80c161"/>
   </g>
   <g id="matplotlib.axis_1">
    <g id="xtick_1">
     <g id="line2d_1">
      <defs>
       <path id="m66a5f5175c" d="M 0 0 
L 0 3.5 
" style="stroke: #000000; stroke-width: 0.8"/>
      </defs>
      <g>
       <use xlink:href="#m66a5f5175c" x="127.8" y="320.4" style="stroke: #000000; stroke-width: 0.8"/>
      </g>
     </g>
     <g id="text_1">
      <text style="font-size: 10px; font-family: 'STIX Two Text'; text-anchor: middle" x="127.8" y="334.459375" transform="rotate(-0 127.8 334.459375)">Minor</text>
     </g>
    </g>
    <g id="xtick_2">
     <g id="line2d_2">
      <g>
       <use xlink:href="#m66a5f5175c" x="239.4" y="320.4" style="stroke: #000000; stroke-width: 0.8"/>
      </g>
     </g>
     <g id="text_2">
      <text style="font-size: 10px; font-family: 'STIX Two Text'; text-anchor: middle" x="239.4" y="334.459375" transform="rotate(-0 239.4 334.459375)">PDO</text>
     </g>
    </g>
    <g id="xtick_3">
     <g id="line2d_3">
      <g>
       <use xlink:href="#m66a5f5175c" x="351" y="320.4" style="stroke: #000000; stroke-width: 0.8"/>
      </g>
     </g>
     <g id="text_3">
      <text style="font-size: 10px; font-family: 'STIX Two Text'; text-anchor: middle" x="351" y="334.459375" transform="rotate(-0 351 334.459375)">Serious</text>
     </g>
    </g>
    <g id="xtick_4">
     <g id="line2d_4">
      <g>
       <use xlink:href="#m66a5f5175c" x="462.6" y="320.4" style="stroke: #000000; stroke-width: 0.8"/>
      </g>
     </g>
     <g id="text_4">
      <text style="font-size: 10px; font-family: 'STIX Two Text'; text-anchor: middle" x="462.6" y="334.459375" transform="rotate(-0 462.6 334.459375)">Fatal</text>
     </g>
    </g>
    <g id="text_5">
     <text style="font-size: 12px; font-family: 'STIX Two Text'; text-anchor: middle" x="295.2" y="349.130625" transform="rotate(-0 295.2 349.130625)">Accident Type</text>
    </g>
   </g>
   <g id="matplotlib.axis_2">
    <g id="ytick_1">
     <g id="line2d_5">
      <defs>
       <path id="m8f16461227" d="M 0 0 
L -3.5 0 
" style="stroke: #000000; stroke-width: 0.8"/>
      </defs>
      <g>
       <use xlink:href="#m8f16461227" x="72" y="320.4" style="stroke: #000000; stroke-width: 0.8"/>
      </g>
     </g>
     <g id="text_6">
      <text style="font-size: 10px; font-family: 'STIX Two Text'; text-anchor: end" x="65" y="323.929688" transform="rotate(-0 65 323.929688)">0</text>
     </g>
    </g>
    <g id="ytick_2">
     <g id="line2d_6">
      <g>
       <use xlink:href="#m8f16461227" x="72" y="285.654014" style="stroke: #000000; stroke-width: 0.8"/>
      </g>
     </g>
     <g id="text_7">
      <text style="font-size: 10px; font-family: 'STIX Two Text'; text-anchor: end" x="65" y="289.183702" transform="rotate(-0 65 289.183702)">5000</text>
     </g>
    </g>
    <g id="ytick_3">
     <g id="line2d_7">
      <g>
       <use xlink:href="#m8f16461227" x="72" y="250.908028" style="stroke: #000000; stroke-width: 0.8"/>
      </g>
     </g>
     <g id="text_8">
      <text style="font-size: 10px; font-family: 'STIX Two Text'; text-anchor: end" x="65" y="254.437716" transform="rotate(-0 65 254.437716)">10000</text>
     </g>
    </g>
    <g id="ytick_4">
     <g id="line2d_8">
      <g>
       <use xlink:href="#m8f16461227" x="72" y="216.162043" style="stroke: #000000; stroke-width: 0.8"/>
      </g>
     </g>
     <g id="text_9">
      <text style="font-size: 10px; font-family: 'STIX Two Text'; text-anchor: end" x="65" y="219.69173" transform="rotate(-0 65 219.69173)">15000</text>
     </g>
    </g>
    <g id="ytick_5">
     <g id="line2d_9">
      <g>
       <use xlink:href="#m8f16461227" x="72" y="181.416057" style="stroke: #000000; stroke-width: 0.8"/>
      </g>
     </g>
     <g id="text_10">
      <text style="font-size: 10px; font-family: 'STIX Two Text'; text-anchor: end" x="65" y="184.945744" transform="rotate(-0 65 184.945744)">20000</text>
     </g>
    </g>
    <g id="ytick_6">
     <g id="line2d_10">
      <g>
       <use xlink:href="#m8f16461227" x="72" y="146.670071" style="stroke: #000000; stroke-width: 0.8"/>
      </g>
     </g>
     <g id="text_11">
      <text style="font-size: 10px; font-family: 'STIX Two Text'; text-anchor: end" x="65" y="150.199759" transform="rotate(-0 65 150.199759)">25000</text>
     </g>
    </g>
    <g id="ytick_7">
     <g id="line2d_11">
      <g>
       <use xlink:href="#m8f16461227" x="72" y="111.924085" style="stroke: #000000; stroke-width: 0.8"/>
      </g>
     </g>
     <g id="text_12">
      <text style="font-size: 10px; font-family: 'STIX Two Text'; text-anchor: end" x="65" y="115.453773" transform="rotate(-0 65 115.453773)">30000</text>
     </g>
    </g>
    <g id="ytick_8">
     <g id="line2d_12">
      <g>
       <use xlink:href="#m8f16461227" x="72" y="77.178099" style="stroke: #000000; stroke-width: 0.8"/>
      </g>
     </g>
     <g id="text_13">
      <text style="font-size: 10px; font-family: 'STIX Two Text'; text-anchor: end" x="65" y="80.707787" transform="rotate(-0 65 80.707787)">35000</text>
     </g>
    </g>
    <g id="text_14">
     <text style="font-size: 12px; font-family: 'STIX Two Text'; text-anchor: middle" x="33.61" y="181.8" transform="rotate(-90 33.61 181.8)">Count</text>
    </g>
   </g>
   <g id="patch_11">
    <path d="M 72 320.4 
L 72 43.2 
" style="fill: none; stroke: #000000; stroke-width: 0.8; stroke-linejoin: miter; stroke-linecap: square"/>
   </g>
   <g id="patch_12">
    <path d="M 518.4 320.4 
L 518.4 43.2 
" style="fill: none; stroke: #000000; stroke-width: 0.8; stroke-linejoin: miter; stroke-linecap: square"/>
   </g>
   <g id="patch_13">
    <path d="M 72 320.4 
L 518.4 320.4 
" style="fill: none; stroke: #000000; stroke-width: 0.8; stroke-linejoin: miter; stroke-linecap: square"/>
   </g>
   <g id="patch_14">
    <path d="M 72 43.2 
L 518.4 43.2 
" style="fill: none; stroke: #000000; stroke-width: 0.8; stroke-linejoin: miter; stroke-linecap: square"/>
   </g>
   <g id="text_15">
    <text style="font-size: 10px; font-family: 'STIX Two Text'; text-anchor: middle" x="127.8" y="48.829687" transform="rotate(-0 127.8 48.829687)">37990</text>
   </g>
   <g id="text_16">
    <text style="font-size: 10px; font-family: 'STIX Two Text'; text-anchor: middle" x="239.4" y="203.261696" transform="rotate(-0 239.4 203.261696)">15767</text>
   </g>
   <g id="text_17">
    <text style="font-size: 10px; font-family: 'STIX Two Text'; text-anchor: middle" x="351" y="281.940506" transform="rotate(-0 351 281.940506)">4445</text>
   </g>
   <g id="text_18">
    <text style="font-size: 10px; font-family: 'STIX Two Text'; text-anchor: middle" x="462.6" y="300.467066" transform="rotate(-0 462.6 300.467066)">1779</text>
   </g>
   <g id="text_19">
    <text style="font-size: 10px; font-family: 'STIX Two Text'; text-anchor: middle" x="127.8" y="312.829687" transform="rotate(-0 127.8 312.829687)">0</text>
   </g>
   <g id="text_20">
    <text style="font-size: 10px; font-family: 'STIX Two Text'; text-anchor: middle" x="127.8" y="312.829687" transform="rotate(-0 127.8 312.829687)">0</text>
   </g>
   <g id="text_21">
    <text style="font-size: 10px; font-family: 'STIX Two Text'; text-anchor: middle" x="127.8" y="312.829687" transform="rotate(-0 127.8 312.829687)">0</text>
   </g>
   <g id="text_22">
    <text style="font-size: 10px; font-family: 'STIX Two Text'; text-anchor: middle" x="127.8" y="312.829687" transform="rotate(-0 127.8 312.829687)">0</text>
   </g>
   <g id="text_23">
    <text style="font-size: 14px; font-family: 'STIX Two Text'; text-anchor: middle" x="295.2" y="37.2" transform="rotate(-0 295.2 37.2)">Distribution of Accident Severity (Target)</text>
   </g>
   <g id="legend_1">
    <g id="patch_15">
     <path d="M 446.290625 122.646875 
L 511.4 122.646875 
Q 513.4 122.646875 513.4 120.646875 
L 513.4 50.2 
Q 513.4 48.2 511.4 48.2 
L 446.290625 48.2 
Q 444.290625 48.2 444.290625 50.2 
L 444.290625 120.646875 
Q 444.290625 122.646875 446.290625 122.646875 
z
" style="fill: #ffffff; opacity: 0.8; stroke: #cccccc; stroke-linejoin: miter"/>
    </g>
    <g id="text_24">
     <text style="font-size: 10px; font-family: 'STIX Two Text'; text-anchor: start" x="448.290625" y="59.259375" transform="rotate(-0 448.290625 59.259375)">Accident Type</text>
    </g>
    <g id="patch_16">
     <path d="M 449.284375 73.66875 
L 469.284375 73.66875 
L 469.284375 66.66875 
L 449.284375 66.66875 
z
" style="fill: #4a4c7e"/>
    </g>
    <g id="text_25">
     <text style="font-size: 10px; font-family: 'STIX Two Text'; text-anchor: start" x="477.284375" y="73.66875" transform="rotate(-0 477.284375 73.66875)">Minor</text>
    </g>
    <g id="patch_17">
     <path d="M 449.284375 87.928125 
L 469.284375 87.928125 
L 469.284375 80.928125 
L 449.284375 80.928125 
z
" style="fill: #367182"/>
    </g>
    <g id="text_26">
     <text style="font-size: 10px; font-family: 'STIX Two Text'; text-anchor: start" x="477.284375" y="87.928125" transform="rotate(-0 477.284375 87.928125)">PDO</text>
    </g>
    <g id="patch_18">
     <path d="M 449.284375 102.1875 
L 469.284375 102.1875 
L 469.284375 95.1875 
L 449.284375 95.1875 
z
" style="fill: #33977c"/>
    </g>
    <g id="text_27">
     <text style="font-size: 10px; font-family: 'STIX Two Text'; text-anchor: start" x="477.284375" y="102.1875" transform="rotate(-0 477.284375 102.1875)">Serious</text>
    </g>
    <g id="patch_19">
     <path d="M 449.284375 116.446875 
L 469.284375 116.446875 
L 469.284375 109.446875 
L 449.284375 109.446875 
z
" style="fill: #80c161"/>
    </g>
    <g id="text_28">
     <text style="font-size: 10px; font-family: 'STIX Two Text'; text-anchor: start" x="477.284375" y="116.446875" transform="rotate(-0 477.284375 116.446875)">Fatal</text>
    </g>
   </g>
  </g>
 </g>
 <defs>
  <clipPath id="pab2c304c57">
   <rect x="72" y="43.2" width="446.4" height="277.2"/>
  </clipPath>
 </defs>
</svg>
