<?xml version="1.0" encoding="utf-8" standalone="no"?>
<!DOCTYPE svg PUBLIC "-//W3C//DTD SVG 1.1//EN"
  "http://www.w3.org/Graphics/SVG/1.1/DTD/svg11.dtd">
<svg xmlns:xlink="http://www.w3.org/1999/xlink" width="720pt" height="360pt" viewBox="0 0 720 360" xmlns="http://www.w3.org/2000/svg" version="1.1">
 <metadata>
  <rdf:RDF xmlns:dc="http://purl.org/dc/elements/1.1/" xmlns:cc="http://creativecommons.org/ns#" xmlns:rdf="http://www.w3.org/1999/02/22-rdf-syntax-ns#">
   <cc:Work>
    <dc:type rdf:resource="http://purl.org/dc/dcmitype/StillImage"/>
    <dc:date>2026-01-05T03:34:46.422337</dc:date>
    <dc:format>image/svg+xml</dc:format>
    <dc:creator>
     <cc:Agent>
      <dc:title>Matplotlib v3.10.8, https://matplotlib.org/</dc:title>
     </cc:Agent>
    </dc:creator>
   </cc:Work>
  </rdf:RDF>
 </metadata>
 <defs>
  <style type="text/css">*{stroke-linejoin: round; stroke-linecap: butt}</style>
 </defs>
 <g id="figure_1">
  <g id="patch_1">
   <path d="M 0 360 
L 720 360 
L 720 0 
L 0 0 
z
" style="fill: #ffffff"/>
  </g>
  <g id="axes_1">
   <g id="patch_2">
    <path d="M 90 320.4 
L 648 320.4 
L 648 43.2 
L 90 43.2 
z
" style="fill: #ffffff"/>
   </g>
   <g id="patch_3">
    <path d="M 115.363636 320.4 
L 136.5 320.4 
L 136.5 291.230264 
L 115.363636 291.230264 
z
" clip-path="url(#p5d9f3a1594)" style="fill: #008080; fill-opacity: 0.5; stroke: #000000; stroke-linejoin: miter"/>
   </g>
   <g id="patch_4">
    <path d="M 136.5 320.4 
L 157.636364 320.4 
L 157.636364 133.630566 
L 136.5 133.630566 
z
" clip-path="url(#p5d9f3a1594)" style="fill: #008080; fill-opacity: 0.5; stroke: #000000; stroke-linejoin: miter"/>
   </g>
   <g id="patch_5">
    <path d="M 157.636364 320.4 
L 178.772727 320.4 
L 178.772727 70.958457 
L 157.636364 70.958457 
z
" clip-path="url(#p5d9f3a1594)" style="fill: #008080; fill-opacity: 0.5; stroke: #000000; stroke-linejoin: miter"/>
   </g>
   <g id="patch_6">
    <path d="M 178.772727 320.4 
L 199.909091 320.4 
L 199.909091 141.338631 
L 178.772727 141.338631 
z
" clip-path="url(#p5d9f3a1594)" style="fill: #008080; fill-opacity: 0.5; stroke: #000000; stroke-linejoin: miter"/>
   </g>
   <g id="patch_7">
    <path d="M 199.909091 320.4 
L 221.045455 320.4 
L 221.045455 213.381328 
L 199.909091 213.381328 
z
" clip-path="url(#p5d9f3a1594)" style="fill: #008080; fill-opacity: 0.5; stroke: #000000; stroke-linejoin: miter"/>
   </g>
   <g id="patch_8">
    <path d="M 221.045455 320.4 
L 242.181818 320.4 
L 242.181818 320.37481 
L 221.045455 320.37481 
z
" clip-path="url(#p5d9f3a1594)" style="fill: #008080; fill-opacity: 0.5; stroke: #000000; stroke-linejoin: miter"/>
   </g>
   <g id="patch_9">
    <path d="M 242.181818 320.4 
L 263.318182 320.4 
L 263.318182 320.4 
L 242.181818 320.4 
z
" clip-path="url(#p5d9f3a1594)" style="fill: #008080; fill-opacity: 0.5; stroke: #000000; stroke-linejoin: miter"/>
   </g>
   <g id="patch_10">
    <path d="M 263.318182 320.4 
L 284.454545 320.4 
L 284.454545 320.4 
L 263.318182 320.4 
z
" clip-path="url(#p5d9f3a1594)" style="fill: #008080; fill-opacity: 0.5; stroke: #000000; stroke-linejoin: miter"/>
   </g>
   <g id="patch_11">
    <path d="M 284.454545 320.4 
L 305.590909 320.4 
L 305.590909 320.387405 
L 284.454545 320.387405 
z
" clip-path="url(#p5d9f3a1594)" style="fill: #008080; fill-opacity: 0.5; stroke: #000000; stroke-linejoin: miter"/>
   </g>
   <g id="patch_12">
    <path d="M 305.590909 320.4 
L 326.727273 320.4 
L 326.727273 320.4 
L 305.590909 320.4 
z
" clip-path="url(#p5d9f3a1594)" style="fill: #008080; fill-opacity: 0.5; stroke: #000000; stroke-linejoin: miter"/>
   </g>
   <g id="patch_13">
    <path d="M 326.727273 320.4 
L 347.863636 320.4 
L 347.863636 320.4 
L 326.727273 320.4 
z
" clip-path="url(#p5d9f3a1594)" style="fill: #008080; fill-opacity: 0.5; stroke: #000000; stroke-linejoin: miter"/>
   </g>
   <g id="patch_14">
    <path d="M 347.863636 320.4 
L 369 320.4 
L 369 320.4 
L 347.863636 320.4 
z
" clip-path="url(#p5d9f3a1594)" style="fill: #008080; fill-opacity: 0.5; stroke: #000000; stroke-linejoin: miter"/>
   </g>
   <g id="patch_15">
    <path d="M 369 320.4 
L 390.136364 320.4 
L 390.136364 320.4 
L 369 320.4 
z
" clip-path="url(#p5d9f3a1594)" style="fill: #008080; fill-opacity: 0.5; stroke: #000000; stroke-linejoin: miter"/>
   </g>
   <g id="patch_16">
    <path d="M 390.136364 320.4 
L 411.272727 320.4 
L 411.272727 320.4 
L 390.136364 320.4 
z
" clip-path="url(#p5d9f3a1594)" style="fill: #008080; fill-opacity: 0.5; stroke: #000000; stroke-linejoin: miter"/>
   </g>
   <g id="patch_17">
    <path d="M 411.272727 320.4 
L 432.409091 320.4 
L 432.409091 320.4 
L 411.272727 320.4 
z
" clip-path="url(#p5d9f3a1594)" style="fill: #008080; fill-opacity: 0.5; stroke: #000000; stroke-linejoin: miter"/>
   </g>
   <g id="patch_18">
    <path d="M 432.409091 320.4 
L 453.545455 320.4 
L 453.545455 320.4 
L 432.409091 320.4 
z
" clip-path="url(#p5d9f3a1594)" style="fill: #008080; fill-opacity: 0.5; stroke: #000000; stroke-linejoin: miter"/>
   </g>
   <g id="patch_19">
    <path d="M 453.545455 320.4 
L 474.681818 320.4 
L 474.681818 320.4 
L 453.545455 320.4 
z
" clip-path="url(#p5d9f3a1594)" style="fill: #008080; fill-opacity: 0.5; stroke: #000000; stroke-linejoin: miter"/>
   </g>
   <g id="patch_20">
    <path d="M 474.681818 320.4 
L 495.818182 320.4 
L 495.818182 320.4 
L 474.681818 320.4 
z
" clip-path="url(#p5d9f3a1594)" style="fill: #008080; fill-opacity: 0.5; stroke: #000000; stroke-linejoin: miter"/>
   </g>
   <g id="patch_21">
    <path d="M 495.818182 320.4 
L 516.954545 320.4 
L 516.954545 320.4 
L 495.818182 320.4 
z
" clip-path="url(#p5d9f3a1594)" style="fill: #008080; fill-opacity: 0.5; stroke: #000000; stroke-linejoin: miter"/>
   </g>
   <g id="patch_22">
    <path d="M 516.954545 320.4 
L 538.090909 320.4 
L 538.090909 320.4 
L 516.954545 320.4 
z
" clip-path="url(#p5d9f3a1594)" style="fill: #008080; fill-opacity: 0.5; stroke: #000000; stroke-linejoin: miter"/>
   </g>
   <g id="patch_23">
    <path d="M 538.090909 320.4 
L 559.227273 320.4 
L 559.227273 320.4 
L 538.090909 320.4 
z
" clip-path="url(#p5d9f3a1594)" style="fill: #008080; fill-opacity: 0.5; stroke: #000000; stroke-linejoin: miter"/>
   </g>
   <g id="patch_24">
    <path d="M 559.227273 320.4 
L 580.363636 320.4 
L 580.363636 320.4 
L 559.227273 320.4 
z
" clip-path="url(#p5d9f3a1594)" style="fill: #008080; fill-opacity: 0.5; stroke: #000000; stroke-linejoin: miter"/>
   </g>
   <g id="patch_25">
    <path d="M 580.363636 320.4 
L 601.5 320.4 
L 601.5 320.4 
L 580.363636 320.4 
z
" clip-path="url(#p5d9f3a1594)" style="fill: #008080; fill-opacity: 0.5; stroke: #000000; stroke-linejoin: miter"/>
   </g>
   <g id="patch_26">
    <path d="M 601.5 320.4 
L 622.636364 320.4 
L 622.636364 320.387405 
L 601.5 320.387405 
z
" clip-path="url(#p5d9f3a1594)" style="fill: #008080; fill-opacity: 0.5; stroke: #000000; stroke-linejoin: miter"/>
   </g>
   <g id="matplotlib.axis_1">
    <g id="xtick_1">
     <g id="line2d_1">
      <defs>
       <path id="mf8a231a12f" d="M 0 0 
L 0 3.5 
" style="stroke: #000000; stroke-width: 0.8"/>
      </defs>
      <g>
       <use xlink:href="#mf8a231a12f" x="115.363636" y="320.4" style="stroke: #000000; stroke-width: 0.8"/>
      </g>
     </g>
     <g id="text_1">
      <text style="font-size: 10px; font-family: 'STIX Two Text'; text-anchor: middle" x="115.363636" y="334.459375" transform="rotate(-0 115.363636 334.459375)">0</text>
     </g>
    </g>
    <g id="xtick_2">
     <g id="line2d_2">
      <g>
       <use xlink:href="#mf8a231a12f" x="205.14642" y="320.4" style="stroke: #000000; stroke-width: 0.8"/>
      </g>
     </g>
     <g id="text_2">
      <text style="font-size: 10px; font-family: 'STIX Two Text'; text-anchor: middle" x="205.14642" y="334.459375" transform="rotate(-0 205.14642 334.459375)">20</text>
     </g>
    </g>
    <g id="xtick_3">
     <g id="line2d_3">
      <g>
       <use xlink:href="#mf8a231a12f" x="294.929204" y="320.4" style="stroke: #000000; stroke-width: 0.8"/>
      </g>
     </g>
     <g id="text_3">
      <text style="font-size: 10px; font-family: 'STIX Two Text'; text-anchor: middle" x="294.929204" y="334.459375" transform="rotate(-0 294.929204 334.459375)">40</text>
     </g>
    </g>
    <g id="xtick_4">
     <g id="line2d_4">
      <g>
       <use xlink:href="#mf8a231a12f" x="384.711987" y="320.4" style="stroke: #000000; stroke-width: 0.8"/>
      </g>
     </g>
     <g id="text_4">
      <text style="font-size: 10px; font-family: 'STIX Two Text'; text-anchor: middle" x="384.711987" y="334.459375" transform="rotate(-0 384.711987 334.459375)">60</text>
     </g>
    </g>
    <g id="xtick_5">
     <g id="line2d_5">
      <g>
       <use xlink:href="#mf8a231a12f" x="474.494771" y="320.4" style="stroke: #000000; stroke-width: 0.8"/>
      </g>
     </g>
     <g id="text_5">
      <text style="font-size: 10px; font-family: 'STIX Two Text'; text-anchor: middle" x="474.494771" y="334.459375" transform="rotate(-0 474.494771 334.459375)">80</text>
     </g>
    </g>
    <g id="xtick_6">
     <g id="line2d_6">
      <g>
       <use xlink:href="#mf8a231a12f" x="564.277554" y="320.4" style="stroke: #000000; stroke-width: 0.8"/>
      </g>
     </g>
     <g id="text_6">
      <text style="font-size: 10px; font-family: 'STIX Two Text'; text-anchor: middle" x="564.277554" y="334.459375" transform="rotate(-0 564.277554 334.459375)">100</text>
     </g>
    </g>
    <g id="text_7">
     <text style="font-size: 12px; font-family: 'STIX Two Text'; text-anchor: middle" x="369" y="349.419375" transform="rotate(-0 369 349.419375)">Hour of Day (24h)</text>
    </g>
   </g>
   <g id="matplotlib.axis_2">
    <g id="ytick_1">
     <g id="line2d_7">
      <defs>
       <path id="m7448482f47" d="M 0 0 
L -3.5 0 
" style="stroke: #000000; stroke-width: 0.8"/>
      </defs>
      <g>
       <use xlink:href="#m7448482f47" x="90" y="320.4" style="stroke: #000000; stroke-width: 0.8"/>
      </g>
     </g>
     <g id="text_8">
      <text style="font-size: 10px; font-family: 'STIX Two Text'; text-anchor: end" x="83" y="323.929688" transform="rotate(-0 83 323.929688)">0</text>
     </g>
    </g>
    <g id="ytick_2">
     <g id="line2d_8">
      <g>
       <use xlink:href="#m7448482f47" x="90" y="288.912807" style="stroke: #000000; stroke-width: 0.8"/>
      </g>
     </g>
     <g id="text_9">
      <text style="font-size: 10px; font-family: 'STIX Two Text'; text-anchor: end" x="83" y="292.442494" transform="rotate(-0 83 292.442494)">2500</text>
     </g>
    </g>
    <g id="ytick_3">
     <g id="line2d_9">
      <g>
       <use xlink:href="#m7448482f47" x="90" y="257.425614" style="stroke: #000000; stroke-width: 0.8"/>
      </g>
     </g>
     <g id="text_10">
      <text style="font-size: 10px; font-family: 'STIX Two Text'; text-anchor: end" x="83" y="260.955301" transform="rotate(-0 83 260.955301)">5000</text>
     </g>
    </g>
    <g id="ytick_4">
     <g id="line2d_10">
      <g>
       <use xlink:href="#m7448482f47" x="90" y="225.938421" style="stroke: #000000; stroke-width: 0.8"/>
      </g>
     </g>
     <g id="text_11">
      <text style="font-size: 10px; font-family: 'STIX Two Text'; text-anchor: end" x="83" y="229.468108" transform="rotate(-0 83 229.468108)">7500</text>
     </g>
    </g>
    <g id="ytick_5">
     <g id="line2d_11">
      <g>
       <use xlink:href="#m7448482f47" x="90" y="194.451228" style="stroke: #000000; stroke-width: 0.8"/>
      </g>
     </g>
     <g id="text_12">
      <text style="font-size: 10px; font-family: 'STIX Two Text'; text-anchor: end" x="83" y="197.980915" transform="rotate(-0 83 197.980915)">10000</text>
     </g>
    </g>
    <g id="ytick_6">
     <g id="line2d_12">
      <g>
       <use xlink:href="#m7448482f47" x="90" y="162.964035" style="stroke: #000000; stroke-width: 0.8"/>
      </g>
     </g>
     <g id="text_13">
      <text style="font-size: 10px; font-family: 'STIX Two Text'; text-anchor: end" x="83" y="166.493722" transform="rotate(-0 83 166.493722)">12500</text>
     </g>
    </g>
    <g id="ytick_7">
     <g id="line2d_13">
      <g>
       <use xlink:href="#m7448482f47" x="90" y="131.476842" style="stroke: #000000; stroke-width: 0.8"/>
      </g>
     </g>
     <g id="text_14">
      <text style="font-size: 10px; font-family: 'STIX Two Text'; text-anchor: end" x="83" y="135.006529" transform="rotate(-0 83 135.006529)">15000</text>
     </g>
    </g>
    <g id="ytick_8">
     <g id="line2d_14">
      <g>
       <use xlink:href="#m7448482f47" x="90" y="99.989649" style="stroke: #000000; stroke-width: 0.8"/>
      </g>
     </g>
     <g id="text_15">
      <text style="font-size: 10px; font-family: 'STIX Two Text'; text-anchor: end" x="83" y="103.519336" transform="rotate(-0 83 103.519336)">17500</text>
     </g>
    </g>
    <g id="ytick_9">
     <g id="line2d_15">
      <g>
       <use xlink:href="#m7448482f47" x="90" y="68.502456" style="stroke: #000000; stroke-width: 0.8"/>
      </g>
     </g>
     <g id="text_16">
      <text style="font-size: 10px; font-family: 'STIX Two Text'; text-anchor: end" x="83" y="72.032143" transform="rotate(-0 83 72.032143)">20000</text>
     </g>
    </g>
    <g id="text_17">
     <text style="font-size: 12px; font-family: 'STIX Two Text'; text-anchor: middle" x="51.61" y="181.8" transform="rotate(-90 51.61 181.8)">Count</text>
    </g>
   </g>
   <g id="line2d_16">
    <path d="M 115.363636 298.424189 
L 117.912746 292.207743 
L 120.461855 289.254329 
L 123.010964 290.125954 
L 125.560073 292.097277 
L 128.109182 294.372585 
L 130.658291 294.715079 
L 133.207401 291.382005 
L 135.75651 282.173567 
L 138.305619 264.89034 
L 140.854728 234.268762 
L 143.403837 184.918621 
L 145.952947 116.872859 
L 148.502056 81.077886 
L 151.051165 66.236977 
L 153.600274 72.445728 
L 156.149383 73.179238 
L 158.698492 65.178862 
L 161.247602 56.405632 
L 163.796711 56.4 
L 166.34582 66.863805 
L 168.894929 83.060807 
L 171.444038 108.766498 
L 173.993148 121.830413 
L 176.542257 113.126067 
L 179.091366 99.653927 
L 181.640475 93.917931 
L 184.189584 91.333238 
L 186.738693 89.345515 
L 189.287803 99.276961 
L 191.836912 111.740367 
L 194.386021 133.971297 
L 196.93513 147.382201 
L 199.484239 153.952423 
L 202.033349 167.674892 
L 204.582458 190.015051 
L 207.131567 210.217388 
L 209.680676 226.317786 
L 212.229785 243.210946 
L 214.778894 255.312761 
L 217.328004 265.54375 
L 219.877113 283.132564 
L 222.426222 308.371875 
L 224.975331 318.950735 
L 227.52444 320.332889 
L 232.622659 320.387973 
L 242.819095 320.398243 
L 413.609411 320.4 
L 622.636364 320.357024 
L 622.636364 320.357024 
" clip-path="url(#p5d9f3a1594)" style="fill: none; stroke: #008080; stroke-width: 1.5; stroke-linecap: square"/>
   </g>
   <g id="patch_27">
    <path d="M 90 320.4 
L 90 43.2 
" style="fill: none; stroke: #000000; stroke-width: 0.8; stroke-linejoin: miter; stroke-linecap: square"/>
   </g>
   <g id="patch_28">
    <path d="M 648 320.4 
L 648 43.2 
" style="fill: none; stroke: #000000; stroke-width: 0.8; stroke-linejoin: miter; stroke-linecap: square"/>
   </g>
   <g id="patch_29">
    <path d="M 90 320.4 
L 648 320.4 
" style="fill: none; stroke: #000000; stroke-width: 0.8; stroke-linejoin: miter; stroke-linecap: square"/>
   </g>
   <g id="patch_30">
    <path d="M 90 43.2 
L 648 43.2 
" style="fill: none; stroke: #000000; stroke-width: 0.8; stroke-linejoin: miter; stroke-linecap: square"/>
   </g>
   <g id="text_18">
    <text style="font-size: 14px; font-family: 'STIX Two Text'; text-anchor: middle" x="369" y="37.2" transform="rotate(-0 369 37.2)">Accident Distribution by Time of Day</text>
   </g>
  </g>
 </g>
 <defs>
  <clipPath id="p5d9f3a1594">
   <rect x="90" y="43.2" width="558" height="277.2"/>
  </clipPath>
 </defs>
</svg>
