<?xml version="1.0" encoding="UTF-8" standalone="no"?>
<!-- Created with Inkscape (http://www.inkscape.org/) -->

<svg
   width="152.63052mm"
   height="152.63052mm"
   viewBox="0 0 152.63052 152.63052"
   version="1.1"
   id="svg1"
   xml:space="preserve"
   inkscape:version="1.4.2 (ebf0e940d0, 2025-05-08)"
   sodipodi:docname="hilcoe-logo.svg"
   xmlns:inkscape="http://www.inkscape.org/namespaces/inkscape"
   xmlns:sodipodi="http://sodipodi.sourceforge.net/DTD/sodipodi-0.dtd"
   xmlns="http://www.w3.org/2000/svg"
   xmlns:svg="http://www.w3.org/2000/svg"><sodipodi:namedview
     id="namedview1"
     pagecolor="#ffffff"
     bordercolor="#000000"
     borderopacity="0.25"
     inkscape:showpageshadow="2"
     inkscape:pageopacity="0.0"
     inkscape:pagecheckerboard="0"
     inkscape:deskcolor="#d1d1d1"
     inkscape:document-units="mm"
     showguides="true"
     inkscape:zoom="0.39696896"
     inkscape:cx="482.40548"
     inkscape:cy="526.48953"
     inkscape:window-width="1280"
     inkscape:window-height="955"
     inkscape:window-x="0"
     inkscape:window-y="0"
     inkscape:window-maximized="1"
     inkscape:current-layer="layer1"><inkscape:page
       x="0"
       y="0"
       width="152.63052"
       height="152.63052"
       id="page2"
       margin="0"
       bleed="0" /></sodipodi:namedview><defs
     id="defs1" /><g
     inkscape:label="Layer 1"
     inkscape:groupmode="layer"
     id="layer1"
     transform="translate(-28.724318,-72.115985)"><g
       id="g24"
       transform="matrix(1.0269058,0,0,1.0269058,-2.8261773,-3.993666)"
       inkscape:export-filename="../CC114/CC114/ch3-and-ch5-summary/images/hilcoe-logo.svg"
       inkscape:export-xdpi="170.40891"
       inkscape:export-ydpi="170.40891"><circle
         style="opacity:1;fill:#2159bf;fill-opacity:1;stroke-width:0.230028"
         id="path1"
         cx="105.03958"
         cy="148.43124"
         r="74.315735" /><path
         style="opacity:1;fill:#e71e2b;fill-opacity:1;stroke-width:0.176389"
         d="m 74.110815,139.4438 0.08331,13.04805 c 15.413017,6.16521 44.944335,31.21466 44.944335,31.21466 0,0 -12.16379,-19.82864 -20.745092,-30.24284 z"
         id="path22"
         sodipodi:nodetypes="ccccc" /><path
         style="fill:#ffffff;fill-opacity:1;stroke-width:0.176389"
         d="m 103.30887,74.31574 c -78.981296,16.829348 -52.431864,67.35785 -44.156208,70.31668 -0.166627,0.16663 0.166627,-49.988161 0.166627,-49.988161 l 13.16355,-0.166627 C 84.146744,81.314083 103.30887,74.31574 103.30887,74.31574 Z"
         id="path2"
         sodipodi:nodetypes="ccccc" /><path
         style="opacity:1;fill:#ffffff;fill-opacity:0.999406;stroke-width:0.176389"
         d="m 60.620055,198.47726 h 12.135794 v -84.75023 l 61.113501,84.75023 12.21976,-0.99407 L 76.790372,95.731379 H 60.620055 Z"
         id="path18" /><path
         style="fill:#ffffff;fill-opacity:1;stroke-width:0.176389"
         d="m 138.30059,163.67642 v 8.20834 L 86.187927,95.644019 h 5.852782 z"
         id="path20"
         sodipodi:nodetypes="ccccc" /><path
         style="fill:#ffffff;fill-opacity:1;stroke-width:0.176389"
         d="m 136.36267,94.519291 3.79555,3.812889 0.0924,85.96273 9.50271,14.18236 2.7522,-1e-5 V 94.519288 Z"
         id="path21"
         sodipodi:nodetypes="ccccccc" /><path
         style="fill:#ffffff;fill-opacity:1;stroke-width:0.176389"
         d="m 86.646154,217.44852 c 46.488996,-3.33255 35.158336,-32.65894 35.158336,-32.65894 l 10.78911,14.57989 h 5.14462 c -4.25323,25.18608 -48.092776,20.91171 -51.092066,18.07905 z"
         id="path23"
         sodipodi:nodetypes="ccccc" /></g></g></svg>
